<svg xmlns="http://www.w3.org/2000/svg" viewBox="0 0 81.53 9.4"><title>Asset 3popup-lables</title><g id="Layer_2" data-name="Layer 2"><g id="Layer_1-2" data-name="Layer 1"><path d="M3.43.32A3.52,3.52,0,0,1,4.55.48,2.25,2.25,0,0,1,5.36,1a1.74,1.74,0,0,1,.5,1.25v0a1.74,1.74,0,0,1-1,1.59,2.45,2.45,0,0,1,1,.68,1.73,1.73,0,0,1,.34,1.13v0a1.71,1.71,0,0,1-.74,1.51,3.49,3.49,0,0,1-2,.52H0V.32ZM4,1.93a1.34,1.34,0,0,0-.79-.19H1.58V3.3h1.5a1.59,1.59,0,0,0,.86-.19.64.64,0,0,0,.31-.59v0A.64.64,0,0,0,4,1.93Zm.39,2.93a1.53,1.53,0,0,0-.9-.21H1.58V6.27H3.51a1.47,1.47,0,0,0,.85-.2.67.67,0,0,0,.3-.6v0A.68.68,0,0,0,4.36,4.86ZM9.05,2.05V3.18a2.23,2.23,0,0,1,.69-1,1.71,1.71,0,0,1,1.11-.29V3.62h-.09a1.61,1.61,0,0,0-1.27.5,2.16,2.16,0,0,0-.44,1.49V7.7H7.44V2.05ZM11.8,7.34a1.55,1.55,0,0,1-.55-1.27v0a1.54,1.54,0,0,1,.62-1.35,2.75,2.75,0,0,1,1.66-.45,4.34,4.34,0,0,1,1.38.23V4.39a.93.93,0,0,0-.31-.77,1.32,1.32,0,0,0-.91-.27,3.81,3.81,0,0,0-.78.08,5.07,5.07,0,0,0-.78.23l-.4-1.22a5.61,5.61,0,0,1,1-.35A5.85,5.85,0,0,1,13.93,2a2.62,2.62,0,0,1,1.91.63,2.49,2.49,0,0,1,.61,1.81V7.7H14.9V7.08a2.18,2.18,0,0,1-1.71.72A2.08,2.08,0,0,1,11.8,7.34Zm2.78-.92a.9.9,0,0,0,.35-.72V5.42a2.38,2.38,0,0,0-1-.21,1.4,1.4,0,0,0-.82.2A.67.67,0,0,0,12.8,6V6a.59.59,0,0,0,.24.5,1,1,0,0,0,.63.18A1.43,1.43,0,0,0,14.58,6.42Zm4.85-4.37v.8a3,3,0,0,1,.71-.67,1.76,1.76,0,0,1,.95-.24,1.82,1.82,0,0,1,1.41.56A2.18,2.18,0,0,1,23,4V7.7H21.4V4.54a1.27,1.27,0,0,0-.25-.85.89.89,0,0,0-.72-.3.93.93,0,0,0-.73.3,1.22,1.22,0,0,0-.27.85V7.7h-1.6V2.05Zm6,5.41a2.58,2.58,0,0,1-.95-1,3.22,3.22,0,0,1-.36-1.57v0a3.25,3.25,0,0,1,.36-1.57,2.44,2.44,0,0,1,2.21-1.35,2.13,2.13,0,0,1,1,.23,2.55,2.55,0,0,1,.75.61V0h1.6V7.7h-1.6V6.88a2.08,2.08,0,0,1-1.77.92A2.46,2.46,0,0,1,25.45,7.46Zm2.37-1.21a1.42,1.42,0,0,0,.49-.56,1.67,1.67,0,0,0,.19-.81v0a1.67,1.67,0,0,0-.19-.81,1.42,1.42,0,0,0-.49-.56,1.37,1.37,0,0,0-1.39,0,1.4,1.4,0,0,0-.5.55,1.8,1.8,0,0,0-.18.82v0a1.79,1.79,0,0,0,.18.81,1.36,1.36,0,0,0,.5.56,1.37,1.37,0,0,0,1.39,0ZM33.23,0V1.42H31.54V0Zm0,2.05V7.7h-1.6V2.05Zm3.11,0v.8A2.79,2.79,0,0,1,37,2.18,1.75,1.75,0,0,1,38,1.94a1.83,1.83,0,0,1,1.42.56A2.23,2.23,0,0,1,39.87,4V7.7h-1.6V4.54A1.32,1.32,0,0,0,38,3.69a.89.89,0,0,0-.72-.3.93.93,0,0,0-.73.3,1.22,1.22,0,0,0-.27.85V7.7H34.7V2.05Zm5,6.76.55-1.2a4.53,4.53,0,0,0,.92.39,3.83,3.83,0,0,0,1,.13c1.08,0,1.61-.51,1.61-1.54V6.32a3,3,0,0,1-.8.69,2.22,2.22,0,0,1-1,.22,2.55,2.55,0,0,1-1.25-.31A2.39,2.39,0,0,1,41.35,6,2.72,2.72,0,0,1,41,4.6v0a2.76,2.76,0,0,1,.35-1.41,2.36,2.36,0,0,1,.92-.91,2.54,2.54,0,0,1,1.24-.32,2.15,2.15,0,0,1,1,.22,3,3,0,0,1,.79.62V2.05H47V6.42a3,3,0,0,1-.72,2.22,3.33,3.33,0,0,1-2.44.76A5.21,5.21,0,0,1,41.29,8.81ZM45,5.53a1.21,1.21,0,0,0,.39-.93v0A1.23,1.23,0,0,0,45,3.64a1.5,1.5,0,0,0-2,0,1.23,1.23,0,0,0-.39.94v0a1.23,1.23,0,0,0,.39.94,1.39,1.39,0,0,0,1,.36A1.37,1.37,0,0,0,45,5.53Zm4.43,2a4.45,4.45,0,0,1-1.46-.88l1-1.15A4.56,4.56,0,0,0,50,6.14a2.94,2.94,0,0,0,1.14.23,1.36,1.36,0,0,0,.78-.19.57.57,0,0,0,.28-.51v0a.56.56,0,0,0-.11-.37A1.07,1.07,0,0,0,51.61,5a7.65,7.65,0,0,0-.93-.29,8.51,8.51,0,0,1-1.36-.46,1.93,1.93,0,0,1-.8-.66,2,2,0,0,1-.29-1.13v0a2.06,2.06,0,0,1,.33-1.17,2.34,2.34,0,0,1,.92-.78A3,3,0,0,1,50.81.21a4.25,4.25,0,0,1,2.75.94l-.85,1.22a3.45,3.45,0,0,0-1.92-.73,1.19,1.19,0,0,0-.7.18.57.57,0,0,0-.25.47v0A.56.56,0,0,0,50,2.7a1,1,0,0,0,.46.28,7.1,7.1,0,0,0,1,.3,4.43,4.43,0,0,1,1.77.81,1.73,1.73,0,0,1,.57,1.4v0A2.06,2.06,0,0,1,53,7.2a3,3,0,0,1-2,.6A4.78,4.78,0,0,1,49.4,7.5Zm6.26-.09a1.7,1.7,0,0,1-.43-1.32V3.42h-.67V2.05h.67V.6h1.6V2.05h1.33V3.42H56.83V5.83a.61.61,0,0,0,.13.41.53.53,0,0,0,.39.14,1.66,1.66,0,0,0,.79-.2V7.46a2.39,2.39,0,0,1-1.26.33A1.78,1.78,0,0,1,55.66,7.41Zm4.15-.17A2.18,2.18,0,0,1,59.3,5.7V2.05h1.6V5.2a1.27,1.27,0,0,0,.26.85.87.87,0,0,0,.71.3,1,1,0,0,0,.74-.3,1.22,1.22,0,0,0,.27-.85V2.05h1.6V7.7h-1.6V6.89a2.65,2.65,0,0,1-.72.67,1.73,1.73,0,0,1-.94.24A1.79,1.79,0,0,1,59.81,7.24Zm6.89.22a2.58,2.58,0,0,1-1-1,3.22,3.22,0,0,1-.35-1.57v0a3.25,3.25,0,0,1,.35-1.57A2.44,2.44,0,0,1,68,1.94a2.12,2.12,0,0,1,1,.23,2.55,2.55,0,0,1,.75.61V0h1.6V7.7h-1.6V6.88A2.07,2.07,0,0,1,68,7.8,2.49,2.49,0,0,1,66.7,7.46Zm2.37-1.21a1.34,1.34,0,0,0,.49-.56,1.67,1.67,0,0,0,.19-.81v0a1.67,1.67,0,0,0-.19-.81,1.34,1.34,0,0,0-.49-.56,1.28,1.28,0,0,0-.69-.19,1.32,1.32,0,0,0-.7.19,1.48,1.48,0,0,0-.5.55,1.8,1.8,0,0,0-.18.82v0a1.79,1.79,0,0,0,.18.81,1.44,1.44,0,0,0,.5.56,1.32,1.32,0,0,0,.7.19A1.28,1.28,0,0,0,69.07,6.25ZM74.48,0V1.42H72.8V0Zm0,2.05V7.7h-1.6V2.05ZM76.9,7.43a2.78,2.78,0,0,1-1.09-1.06,2.75,2.75,0,0,1-.4-1.47v0a2.8,2.8,0,0,1,.4-1.47,3,3,0,0,1,1.1-1.07,3.28,3.28,0,0,1,3.12,0,2.81,2.81,0,0,1,1.1,1.06,2.9,2.9,0,0,1,.4,1.47v0a2.82,2.82,0,0,1-.41,1.48A2.9,2.9,0,0,1,80,7.43a3.31,3.31,0,0,1-3.12,0ZM79.54,6a1.57,1.57,0,0,0,.4-1.1v0a1.54,1.54,0,0,0-.19-.77,1.43,1.43,0,0,0-.52-.57,1.36,1.36,0,0,0-.77-.22,1.39,1.39,0,0,0-1.07.44,1.62,1.62,0,0,0-.4,1.1v0a1.73,1.73,0,0,0,.19.78,1.61,1.61,0,0,0,.53.57,1.41,1.41,0,0,0,.77.21A1.37,1.37,0,0,0,79.54,6Z"/></g></g></svg>